<?xml version="1.0" encoding="utf-8"?>
<!-- Generator: Adobe Illustrator 26.0.1, SVG Export Plug-In . SVG Version: 6.00 Build 0)  -->
<svg version="1.1" id="Слой_1" xmlns="http://www.w3.org/2000/svg" xmlns:xlink="http://www.w3.org/1999/xlink" x="0px" y="0px"
	 viewBox="0 0 26 26" style="enable-background:new 0 0 26 26;" xml:space="preserve">
<style type="text/css">
	.st0{fill:#E3E3E3;}
</style>
<g>
	<path class="st0" d="M12.99,23.45l-1.28-3.63c-0.27-0.76-0.99-1.27-1.8-1.27c-0.29,0-0.56,0.06-0.82,0.19l-3.49,1.66l1.66-3.48
		c0.23-0.49,0.25-1.05,0.04-1.55c-0.21-0.5-0.62-0.89-1.12-1.07L2.55,13l3.64-1.28c0.51-0.18,0.92-0.57,1.12-1.07
		S7.5,9.58,7.27,9.09L5.61,5.61l3.48,1.66c0.26,0.12,0.53,0.19,0.82,0.19c0.81,0,1.53-0.51,1.8-1.27L13,2.55l1.28,3.64
		c0.27,0.76,0.99,1.27,1.8,1.27c0.29,0,0.56-0.06,0.82-0.19l3.49-1.66l-1.66,3.48c-0.23,0.49-0.25,1.05-0.04,1.55
		c0.21,0.5,0.62,0.89,1.12,1.07L23.45,13l-3.64,1.28c-0.51,0.18-0.92,0.57-1.12,1.07c-0.21,0.5-0.19,1.06,0.04,1.55l1.66,3.49
		l-3.48-1.66c-0.26-0.12-0.53-0.19-0.82-0.19c-0.81,0-1.53,0.51-1.8,1.27L12.99,23.45C12.99,23.45,12.99,23.45,12.99,23.45z
		 M12.88,8.63c-2.67,0-4.84,2.17-4.84,4.84c0,2.67,2.17,4.84,4.84,4.84s4.84-2.17,4.84-4.84C17.72,10.8,15.55,8.63,12.88,8.63z"/>
	<path class="st0" d="M13,5.42l0.39,1.09c0.2,0.57,0.57,1.04,1.04,1.38c-0.49-0.14-1.01-0.21-1.55-0.21c-0.41,0-0.81,0.04-1.19,0.12
		c0.42-0.33,0.74-0.77,0.93-1.29L13,5.42 M7.64,7.64l1.04,0.5c0.39,0.18,0.8,0.28,1.23,0.28c0.05,0,0.1,0,0.14,0
		C9.42,8.76,8.87,9.23,8.41,9.78C8.39,9.4,8.3,9.03,8.13,8.68L7.64,7.64 M18.36,7.64l-0.5,1.04c-0.21,0.45-0.3,0.94-0.27,1.42
		c-0.51-0.71-1.17-1.3-1.94-1.72c0.14,0.02,0.29,0.03,0.44,0.03c0.43,0,0.84-0.09,1.23-0.28L18.36,7.64 M18.49,12
		c0.29,0.27,0.63,0.48,1.01,0.62L20.58,13l-1.09,0.39c-0.3,0.11-0.58,0.27-0.83,0.46c0.01-0.13,0.01-0.25,0.01-0.38
		C18.68,12.96,18.61,12.47,18.49,12 M7.21,12.24c-0.09,0.4-0.13,0.81-0.13,1.23c0,0.07,0,0.14,0,0.2c-0.18-0.12-0.38-0.21-0.58-0.28
		L5.42,13l1.09-0.39C6.76,12.52,7,12.4,7.21,12.24 M17.66,16.74c0.05,0.2,0.11,0.39,0.2,0.58l0.5,1.04l-1.04-0.5
		c-0.15-0.07-0.31-0.13-0.47-0.18C17.15,17.4,17.43,17.09,17.66,16.74 M8.27,16.98c0.21,0.28,0.45,0.53,0.7,0.77
		c-0.1,0.03-0.2,0.07-0.29,0.12l-1.04,0.5l0.5-1.04C8.19,17.21,8.23,17.1,8.27,16.98 M13.49,19.23c-0.04,0.08-0.08,0.17-0.11,0.26
		L13,20.58l-0.39-1.09c-0.03-0.08-0.06-0.16-0.1-0.24c0.12,0.01,0.24,0.01,0.36,0.01C13.09,19.27,13.29,19.26,13.49,19.23 M13,1.59
		c-0.37,0-0.75,0.21-0.9,0.63l-1.29,3.64C10.67,6.26,10.3,6.5,9.91,6.5C9.77,6.5,9.63,6.47,9.5,6.4L6.02,4.75
		c-0.14-0.07-0.28-0.1-0.41-0.1c-0.65,0-1.17,0.69-0.86,1.37L6.4,9.5c0.24,0.51-0.01,1.12-0.54,1.31L2.23,12.1
		c-0.84,0.3-0.84,1.5,0,1.8l3.64,1.29c0.53,0.19,0.78,0.8,0.54,1.31l-1.66,3.49c-0.32,0.67,0.21,1.37,0.86,1.37
		c0.13,0,0.27-0.03,0.41-0.1L9.5,19.6c0.13-0.06,0.27-0.09,0.41-0.09c0.39,0,0.76,0.24,0.9,0.63l1.29,3.64
		c0.15,0.42,0.52,0.63,0.9,0.63s0.75-0.21,0.9-0.63l1.29-3.64c0.14-0.39,0.51-0.63,0.9-0.63c0.14,0,0.28,0.03,0.41,0.09l3.49,1.66
		c0.14,0.07,0.28,0.1,0.41,0.1c0.65,0,1.17-0.69,0.86-1.37L19.6,16.5c-0.24-0.51,0.01-1.12,0.54-1.31l3.64-1.29
		c0.84-0.3,0.84-1.5,0-1.8l-3.64-1.29c-0.53-0.19-0.78-0.8-0.54-1.31l1.66-3.49c0.32-0.67-0.21-1.37-0.86-1.37
		c-0.13,0-0.27,0.03-0.41,0.1L16.5,6.4c-0.13,0.06-0.27,0.09-0.41,0.09c-0.39,0-0.76-0.24-0.9-0.63L13.9,2.23
		C13.75,1.8,13.37,1.59,13,1.59L13,1.59z M12.88,17.35c-2.14,0-3.88-1.74-3.88-3.88c0-2.14,1.74-3.88,3.88-3.88
		c2.14,0,3.88,1.74,3.88,3.88C16.76,15.61,15.02,17.35,12.88,17.35L12.88,17.35z"/>
</g>
</svg>
