<?xml version="1.0" encoding="utf-8"?>
<!-- Generator: Adobe Illustrator 26.0.1, SVG Export Plug-In . SVG Version: 6.00 Build 0)  -->
<svg version="1.1" id="layer_1" xmlns="http://www.w3.org/2000/svg" xmlns:xlink="http://www.w3.org/1999/xlink" x="0px" y="0px"
	 viewBox="0 0 13 26" style="enable-background:new 0 0 13 26;" xml:space="preserve">
<style type="text/css">
	.st0{fill:#E3E3E3;stroke:#E3E3E3;stroke-width:0.2231;}
	.st1{fill:#E3E3E3;stroke:#E3E3E3;stroke-width:1.1153;stroke-miterlimit:10;}
</style>
<g>
	<path class="st0" d="M5.26,22.22c-1.74-0.03-3.53-0.57-4.58-1.32L1.4,18.9c1.08,0.72,2.63,1.29,4.31,1.29
		c2.12,0,3.56-1.23,3.56-2.93c0-1.65-1.17-2.66-3.38-3.56c-3.05-1.2-4.94-2.57-4.94-5.18c0-2.48,1.77-4.37,4.52-4.82l1.86-0.12
		c1.8,0.06,3.02,0.54,3.89,1.05L10.46,6.6C9.84,6.24,8.61,5.58,6.69,5.58c-2.3,0-3.17,1.38-3.17,2.57c0,1.56,1.11,2.33,3.71,3.41
		c3.08,1.26,4.64,2.81,4.64,5.48c0,2.36-1.65,4.58-4.73,5.09L5.26,22.22z"/>
</g>
<line class="st1" x1="5.72" y1="0.89" x2="5.72" y2="25.43"/>
<line class="st1" x1="7.36" y1="0.89" x2="7.36" y2="25.43"/>
</svg>
