<?xml version="1.0" encoding="utf-8"?>
<!-- Generator: Adobe Illustrator 26.0.1, SVG Export Plug-In . SVG Version: 6.00 Build 0)  -->
<svg version="1.1" id="layer_1" xmlns="http://www.w3.org/2000/svg" xmlns:xlink="http://www.w3.org/1999/xlink" x="0px" y="0px"
	 viewBox="0 0 38.9 24.5" style="enable-background:new 0 0 38.9 24.5;" xml:space="preserve">
<style type="text/css">
	.st0{fill:none;stroke:#E3E3E3;stroke-width:2.1646;stroke-miterlimit:10;}
	.st1{fill:#E3E3E3;stroke:#E3E3E3;stroke-width:2.1646;stroke-miterlimit:10;}
	.st2{fill:#E3E3E3;}
</style>
<g id="layer_2">
	<path class="st0" d="M34.4,23.4h-30c-1.9,0-3.4-1.5-3.4-3.3V4.4c0-1.8,1.5-3.3,3.4-3.3h30c1.9,0,3.4,1.5,3.4,3.3v15.7
		C37.8,21.9,36.3,23.4,34.4,23.4z"/>
	<path class="st1" d="M16.7,18.7H7.5c-0.6,0-1.1-0.5-1.1-1.1l0,0c0-2.1,1.7-3.7,3.8-3.7H14c2.1,0,3.8,1.7,3.8,3.7l0,0
		C17.9,18.2,17.3,18.7,16.7,18.7z"/>
</g>
<g id="layer_3">
	<path class="st2" d="M17.9,13.3c-0.4-0.2-2.2-1.4-2.3-4.9c-0.1-2.7-0.6-4.9-3.8-4.9c-2.8,0-3.5,2.9-3.5,5.6c0.1,2.4-1.5,3.6-2.3,4
		c-0.1,0.1-0.1,0.2,0.1,0.2l4.1-0.4c1.1-0.1,2.3-0.1,3.4,0L17.9,13.3C18,13.4,18,13.3,17.9,13.3z M12.1,12.2c-1.6,0-2.9-2.1-2.9-4.6
		c0,0,4.4,0.4,5-1.6c0.6,1-0.2,1.4-0.2,1.4l1,0.1C15.1,10.1,13.8,12.2,12.1,12.2z"/>
	<path class="st2" d="M31.9,6H20.3c-0.4,0-0.8-0.3-0.8-0.8l0,0c0-0.4,0.3-0.8,0.8-0.8h11.6c0.4,0,0.8,0.3,0.8,0.8l0,0
		C32.7,5.6,32.3,6,31.9,6z"/>
	<path class="st2" d="M31.9,9.6H20.3c-0.4,0-0.8-0.3-0.8-0.8l0,0c0-0.4,0.3-0.8,0.8-0.8h11.6c0.4,0,0.8,0.3,0.8,0.8l0,0
		C32.7,9.3,32.3,9.6,31.9,9.6z"/>
	<path class="st2" d="M26.3,13.1H20c-0.3,0-0.6-0.3-0.6-0.6v-0.4c0-0.3,0.3-0.6,0.6-0.6h6.2c0.3,0,0.6,0.3,0.6,0.6v0.4
		C26.9,12.9,26.6,13.1,26.3,13.1z"/>
</g>
</svg>
