<?xml version="1.0" encoding="utf-8"?>
<!-- Generator: Adobe Illustrator 26.0.1, SVG Export Plug-In . SVG Version: 6.00 Build 0)  -->
<svg version="1.1" id="layer_1" xmlns="http://www.w3.org/2000/svg" xmlns:xlink="http://www.w3.org/1999/xlink" x="0px" y="0px"
	 viewBox="0 0 35 25" style="enable-background:new 0 0 35 25;" xml:space="preserve">
<style type="text/css">
	.st0{fill:none;stroke:#E3E3E3;stroke-miterlimit:10;}
</style>
<g>
	<path class="st0" d="M0.36,1.51c0,0,4.08,0.8,6.88-0.18s2.63,16.75,2.63,16.75l24.29,0.06"/>
</g>
<circle class="st0" cx="14.9" cy="21.32" r="3.05"/>
<circle class="st0" cx="28.42" cy="21.32" r="3.05"/>
<circle class="st0" cx="14.96" cy="21.38" r="0.84"/>
<circle class="st0" cx="28.48" cy="21.26" r="0.84"/>
<path class="st0" d="M29.3,17.55H14.26c-0.54,0-0.97-0.44-0.97-0.97V5.84c0-0.54,0.44-0.97,0.97-0.97H29.3
	c0.54,0,0.97,0.44,0.97,0.97v10.74C30.28,17.11,29.84,17.55,29.3,17.55z"/>
<path class="st0" d="M30.28,8.1"/>
<path class="st0" d="M13.29,8.1"/>
<path class="st0" d="M30.34,11.21"/>
<path class="st0" d="M13.34,11.21"/>
<path class="st0" d="M30.34,14.32"/>
<path class="st0" d="M13.34,14.32"/>
</svg>
