<?xml version="1.0" encoding="utf-8"?>
<!-- Generator: Adobe Illustrator 26.0.1, SVG Export Plug-In . SVG Version: 6.00 Build 0)  -->

<svg version="1.1" id="Слой_1" xmlns="http://www.w3.org/2000/svg" xmlns:xlink="http://www.w3.org/1999/xlink" x="0px" y="0px"
	 viewBox="0 0 26 26" style="enable-background:new 0 0 26 26;" xml:space="preserve">
	<style type="text/css">
	.st0{fill:#E3E3E3;}
</style>
<path class="st0" d="M21.8,2H4.2C2.9,2,2,2.9,2,4.2V24c0,1.3,0.9,2.2,2.2,2.2h17.6c1.3,0,2.2-0.9,2.2-2.2V4.2C24,2.9,23.1,2,21.8,2z M22.9,23.6
	c0,0.9-0.7,1.8-1.8,1.8H4.6c-0.9,0-1.8-0.7-1.8-1.8l0-19c0-0.9,0.7-1.8,1.8-1.8h16.5c0.9,0,1.8,0.7,1.8,1.8L22.9,23.6z"/>
<path class="st0" d="M19.6,2H6.4l0,0c0-1.3,0.9-2.2,2.2-2.2h8.8C18.7-0.2,19.6,0.7,19.6,2L19.6,2z"/>
<path class="st0" d="M19,6.6h-5.1c-0.2,0-0.7-0.2-0.7-0.7l0,0c0-0.2,0.2-0.7,0.7-0.7H19c0.2,0,0.7,0.2,0.7,0.7l0,0C19.6,6.2,19.4,6.6,19,6.6z"/>
<path class="st0" d="M19,9.3h-5.1c-0.2,0-0.4-0.4-0.4-0.7l0,0c0-0.2,0.2-0.7,0.7-0.7h5.1c0.2,0,0.4,0.2,0.4,0.7l0,0C19.6,8.8,19.4,9.3,19,9.3z"
	/>
<path class="st0" d="M19,12.1h-5.1c-0.2,0-0.7-0.2-0.7-0.7l0,0c0.2-0.2,0.4-0.7,0.7-0.7H19c0.4,0,0.7,0.4,0.7,0.7l0,0
	C19.6,11.9,19.4,12.1,19,12.1z"/>
<path class="st0" d="M19,15h-5.1c-0.2,0-0.7-0.2-0.7-0.7l0,0c0-0.2,0.2-0.7,0.7-0.7H19c0.2,0,0.7,0.2,0.7,0.7l0,0C19.6,14.8,19.4,15,19,15z"/>
<path class="st0" d="M19,17.6H7c-0.4,0-0.7-0.2-0.7-0.4l0,0c0-0.2,0.2-0.7,0.7-0.7H19c0.2,0,0.7,0.2,0.7,0.7l0,0C19.4,17.4,19.2,17.6,19,17.6z"
	/>
<path class="st0" d="M19,20.5H7c-0.2,0-0.7-0.2-0.7-0.7l0,0c0-0.2,0.2-0.7,0.7-0.7H19c0.2,0,0.7,0.2,0.7,0.7l0,0C19.4,20.1,19.2,20.5,19,20.5z"
	/>
<path class="st0" d="M19,22.9H7c-0.2,0-0.7-0.2-0.7-0.7l0,0c0-0.2,0.2-0.7,0.7-0.7H19c0.2,0,0.7,0.2,0.7,0.7l0,0C19.4,22.7,19.2,22.9,19,22.9z"
	/>
<path class="st0" d="M6.6,11.9c0.7,0.4,1.3,0.7,2,0.7c0.4,0,0.7,0,0.9-0.2c0.2-0.2,0.2-0.2,0.2-0.4c0-0.2,0-0.4-0.2-0.4c0-0.2-0.4-0.4-1.1-0.9
	c-1.1-0.4-1.8-1.1-1.8-2c0-0.7,0.2-1.1,0.7-1.5c0.7-0.4,1.3-0.7,2-0.7c0.7,0,1.3,0,1.8,0.2v1.3c-0.4,0-0.9-0.2-1.5-0.2
	c-0.4,0-0.7,0-0.9,0.2c-0.2,0-0.4,0.2-0.4,0.4c0,0.2,0,0.4,0.2,0.4C8.6,9,9,9.3,9.5,9.5c0.7,0.4,1.3,0.7,1.5,1.1
	c0.2,0.2,0.4,0.7,0.4,1.1c0,0.7-0.2,1.1-0.7,1.5c-0.7,0.4-1.3,0.7-2.2,0.7s-1.5-0.2-2-0.4V11.9z"/>
<path class="st0" d="M8.4,5.3h1.3V7H8.4V5.3z"/>
<path class="st0" d="M8.4,13.4h1.3v1.8H8.4V13.4z"/>
</svg>
