<?xml version="1.0" encoding="utf-8"?>
<!-- Generator: Adobe Illustrator 26.0.1, SVG Export Plug-In . SVG Version: 6.00 Build 0)  -->
<svg version="1.1" id="Слой_1" xmlns="http://www.w3.org/2000/svg" xmlns:xlink="http://www.w3.org/1999/xlink" x="0px" y="0px"
	 viewBox="0 0 26 26" style="enable-background:new 0 0 26 26;" xml:space="preserve">
<style type="text/css">
	.st0{fill:#E3E3E3;}
</style>
<g>
	<path class="st0" d="M13.8,4.9c0.6,0,1.1,0,1.7,0c0.2,0,0.2,0,0.2,0.2c0,0.7,0.1,1.4,0.2,2c0,0.1,0,0.2-0.1,0.4
		c-0.7,1.4,0.3,3,1.8,2.9c0.8,0,1.4-0.5,1.7-1.2c0.3-0.7,0.2-1.4-0.3-2c-0.3-0.3-0.4-0.6-0.5-1.1c0-0.3-0.1-0.6-0.1-0.8
		c0-0.1,0-0.2,0.2-0.2c0.5,0,1,0.1,1.5,0.2c0.2,0.1,0.4,0.2,0.5,0.5c0.1,0.4,0.2,0.9,0.2,1.3c0.2,1.9,0.4,3.9,0.4,5.9
		c0,0.7-0.2,1.3-0.7,1.8c-2.1,2.1-4.1,4.1-6.2,6.2c-1.3,1.3-2.5,2.5-3.8,3.8c-0.1,0.1-0.2,0.2-0.3,0.2c-0.6,0.5-1.3,0.5-1.9,0
		c-0.7-0.6-1.4-1.3-2-1.9c-1.6-1.6-3.3-3.3-4.9-5c-0.1-0.1-0.2-0.3-0.4-0.4c-0.4-0.4-0.4-0.8-0.4-1.3c0-0.2,0.2-0.4,0.3-0.6
		c0.4-0.5,0.9-1,1.4-1.5c2.9-2.9,5.9-5.9,8.8-8.8c0.4-0.4,0.9-0.7,1.6-0.6C13.1,4.9,13.5,4.9,13.8,4.9C13.8,4.9,13.8,4.9,13.8,4.9z"
		/>
	<path class="st0" d="M25.3,5.5c-0.1,2.1-0.6,4.1-1.6,6c-0.1,0.1-0.1,0.2-0.2,0.3c-0.2,0.3-0.6,0.3-0.9,0.2
		c-0.3-0.2-0.4-0.5-0.3-0.8c0.3-0.7,0.6-1.4,0.9-2.2c0.5-1.4,0.6-2.6,0.6-3.9c0-0.8-0.3-1.6-0.9-2.2c-1-1-2.7-1.1-3.8-0.2
		c-0.8,0.7-1.2,1.6-1,2.6c0.1,0.8,0.2,1.6,0.4,2.4c0,0.1,0,0.2,0,0.3c0,0.4-0.2,0.7-0.5,0.7c-0.4,0.1-0.7-0.1-0.8-0.5
		c-0.2-1-0.4-2-0.5-3c0-0.5,0-1.1,0.2-1.6c0.5-1.5,1.5-2.4,3-2.8c2.3-0.6,4.5,0.5,5.3,3.1C25.2,4.4,25.3,4.9,25.3,5.5z"/>
</g>
</svg>
